<mxfile host="app.diagrams.net" agent="Mozilla/5.0 (Windows NT 10.0; Win64; x64) AppleWebKit/537.36 (KHTML, like Gecko) Chrome/128.0.0.0 Safari/537.36" version="24.7.10">
  <diagram name="Página-1" id="5Otb-ThUDiDGSafYDQaY">
    <mxGraphModel dx="1434" dy="780" grid="1" gridSize="10" guides="1" tooltips="1" connect="1" arrows="1" fold="1" page="1" pageScale="1" pageWidth="827" pageHeight="1169" math="0" shadow="0">
      <root>
        <mxCell id="0" />
        <mxCell id="1" parent="0" />
        <mxCell id="a-PJ5GMv2Ck7ddvkaEID-1" value="" style="aspect=fixed;sketch=0;html=1;dashed=0;whitespace=wrap;verticalLabelPosition=bottom;verticalAlign=top;fillColor=#2875E2;strokeColor=#ffffff;points=[[0.005,0.63,0],[0.1,0.2,0],[0.9,0.2,0],[0.5,0,0],[0.995,0.63,0],[0.72,0.99,0],[0.5,1,0],[0.28,0.99,0]];shape=mxgraph.kubernetes.icon2;prIcon=user" parent="1" vertex="1">
          <mxGeometry x="360" y="10" width="83.33" height="80" as="geometry" />
        </mxCell>
        <mxCell id="a-PJ5GMv2Ck7ddvkaEID-3" value="" style="endArrow=classic;html=1;rounded=0;exitX=0.5;exitY=1;exitDx=0;exitDy=0;exitPerimeter=0;" parent="1" source="a-PJ5GMv2Ck7ddvkaEID-1" edge="1">
          <mxGeometry width="50" height="50" relative="1" as="geometry">
            <mxPoint x="390" y="430" as="sourcePoint" />
            <mxPoint x="400" y="160" as="targetPoint" />
          </mxGeometry>
        </mxCell>
        <mxCell id="a-PJ5GMv2Ck7ddvkaEID-4" value="Página Inicial" style="ellipse;whiteSpace=wrap;html=1;" parent="1" vertex="1">
          <mxGeometry x="353.33" y="160" width="90" height="70" as="geometry" />
        </mxCell>
        <mxCell id="a-PJ5GMv2Ck7ddvkaEID-5" value="Login/cadastro" style="ellipse;whiteSpace=wrap;html=1;" parent="1" vertex="1">
          <mxGeometry x="540" y="160" width="100" height="70" as="geometry" />
        </mxCell>
        <mxCell id="a-PJ5GMv2Ck7ddvkaEID-6" value="" style="endArrow=classic;html=1;rounded=0;exitX=1;exitY=0.5;exitDx=0;exitDy=0;entryX=0;entryY=0.5;entryDx=0;entryDy=0;" parent="1" source="a-PJ5GMv2Ck7ddvkaEID-4" target="a-PJ5GMv2Ck7ddvkaEID-5" edge="1">
          <mxGeometry width="50" height="50" relative="1" as="geometry">
            <mxPoint x="390" y="430" as="sourcePoint" />
            <mxPoint x="440" y="380" as="targetPoint" />
          </mxGeometry>
        </mxCell>
        <mxCell id="a-PJ5GMv2Ck7ddvkaEID-7" value="Monte sua festa" style="ellipse;whiteSpace=wrap;html=1;" parent="1" vertex="1">
          <mxGeometry x="200" y="155" width="80" height="80" as="geometry" />
        </mxCell>
        <mxCell id="a-PJ5GMv2Ck7ddvkaEID-8" value="" style="endArrow=classic;html=1;rounded=0;entryX=0.363;entryY=0.988;entryDx=0;entryDy=0;entryPerimeter=0;" parent="1" source="a-PJ5GMv2Ck7ddvkaEID-5" target="a-PJ5GMv2Ck7ddvkaEID-7" edge="1">
          <mxGeometry width="50" height="50" relative="1" as="geometry">
            <mxPoint x="390" y="430" as="sourcePoint" />
            <mxPoint x="400" y="300" as="targetPoint" />
            <Array as="points">
              <mxPoint x="600" y="540" />
              <mxPoint x="230" y="540" />
            </Array>
          </mxGeometry>
        </mxCell>
        <mxCell id="a-PJ5GMv2Ck7ddvkaEID-9" value="Perfil" style="ellipse;whiteSpace=wrap;html=1;" parent="1" vertex="1">
          <mxGeometry x="730" y="155" width="80" height="80" as="geometry" />
        </mxCell>
        <mxCell id="a-PJ5GMv2Ck7ddvkaEID-10" value="" style="endArrow=classic;html=1;rounded=0;exitX=1;exitY=0.5;exitDx=0;exitDy=0;entryX=0;entryY=0.5;entryDx=0;entryDy=0;" parent="1" source="a-PJ5GMv2Ck7ddvkaEID-5" target="a-PJ5GMv2Ck7ddvkaEID-9" edge="1">
          <mxGeometry width="50" height="50" relative="1" as="geometry">
            <mxPoint x="390" y="430" as="sourcePoint" />
            <mxPoint x="440" y="380" as="targetPoint" />
          </mxGeometry>
        </mxCell>
        <mxCell id="a-PJ5GMv2Ck7ddvkaEID-11" value="" style="endArrow=classic;html=1;rounded=0;exitX=0.5;exitY=1;exitDx=0;exitDy=0;" parent="1" source="a-PJ5GMv2Ck7ddvkaEID-5" edge="1" target="a-PJ5GMv2Ck7ddvkaEID-12">
          <mxGeometry width="50" height="50" relative="1" as="geometry">
            <mxPoint x="390" y="430" as="sourcePoint" />
            <mxPoint x="590" y="300" as="targetPoint" />
          </mxGeometry>
        </mxCell>
        <mxCell id="a-PJ5GMv2Ck7ddvkaEID-12" value="Recuperação de senha" style="ellipse;whiteSpace=wrap;html=1;" parent="1" vertex="1">
          <mxGeometry x="640" y="290" width="80" height="80" as="geometry" />
        </mxCell>
        <mxCell id="a-PJ5GMv2Ck7ddvkaEID-14" value="Carrinho" style="ellipse;whiteSpace=wrap;html=1;" parent="1" vertex="1">
          <mxGeometry x="40" y="155" width="80" height="80" as="geometry" />
        </mxCell>
        <mxCell id="a-PJ5GMv2Ck7ddvkaEID-15" value="" style="endArrow=classic;html=1;rounded=0;exitX=0;exitY=0.5;exitDx=0;exitDy=0;entryX=1;entryY=0.5;entryDx=0;entryDy=0;entryPerimeter=0;" parent="1" source="a-PJ5GMv2Ck7ddvkaEID-7" target="a-PJ5GMv2Ck7ddvkaEID-14" edge="1">
          <mxGeometry width="50" height="50" relative="1" as="geometry">
            <mxPoint x="390" y="430" as="sourcePoint" />
            <mxPoint x="130" y="193" as="targetPoint" />
          </mxGeometry>
        </mxCell>
        <mxCell id="a-PJ5GMv2Ck7ddvkaEID-16" value="Agendamento" style="ellipse;whiteSpace=wrap;html=1;" parent="1" vertex="1">
          <mxGeometry x="40" y="290" width="80" height="80" as="geometry" />
        </mxCell>
        <mxCell id="a-PJ5GMv2Ck7ddvkaEID-17" value="Pagamento" style="ellipse;whiteSpace=wrap;html=1;" parent="1" vertex="1">
          <mxGeometry x="40" y="410" width="80" height="80" as="geometry" />
        </mxCell>
        <mxCell id="a-PJ5GMv2Ck7ddvkaEID-18" value="Confirmação de pagamento" style="ellipse;whiteSpace=wrap;html=1;" parent="1" vertex="1">
          <mxGeometry x="35" y="545" width="90" height="80" as="geometry" />
        </mxCell>
        <mxCell id="a-PJ5GMv2Ck7ddvkaEID-19" value="" style="endArrow=classic;html=1;rounded=0;exitX=0.5;exitY=1;exitDx=0;exitDy=0;entryX=0.5;entryY=0;entryDx=0;entryDy=0;" parent="1" source="a-PJ5GMv2Ck7ddvkaEID-14" target="a-PJ5GMv2Ck7ddvkaEID-16" edge="1">
          <mxGeometry width="50" height="50" relative="1" as="geometry">
            <mxPoint x="390" y="430" as="sourcePoint" />
            <mxPoint x="440" y="380" as="targetPoint" />
          </mxGeometry>
        </mxCell>
        <mxCell id="a-PJ5GMv2Ck7ddvkaEID-20" value="" style="endArrow=classic;html=1;rounded=0;exitX=0.5;exitY=1;exitDx=0;exitDy=0;entryX=0.5;entryY=0;entryDx=0;entryDy=0;" parent="1" source="a-PJ5GMv2Ck7ddvkaEID-16" target="a-PJ5GMv2Ck7ddvkaEID-17" edge="1">
          <mxGeometry width="50" height="50" relative="1" as="geometry">
            <mxPoint x="390" y="430" as="sourcePoint" />
            <mxPoint x="440" y="380" as="targetPoint" />
          </mxGeometry>
        </mxCell>
        <mxCell id="a-PJ5GMv2Ck7ddvkaEID-21" value="" style="endArrow=classic;html=1;rounded=0;exitX=0.5;exitY=1;exitDx=0;exitDy=0;entryX=0.5;entryY=0;entryDx=0;entryDy=0;" parent="1" source="a-PJ5GMv2Ck7ddvkaEID-17" target="a-PJ5GMv2Ck7ddvkaEID-18" edge="1">
          <mxGeometry width="50" height="50" relative="1" as="geometry">
            <mxPoint x="390" y="430" as="sourcePoint" />
            <mxPoint x="440" y="380" as="targetPoint" />
          </mxGeometry>
        </mxCell>
        <mxCell id="a-PJ5GMv2Ck7ddvkaEID-22" value="" style="endArrow=classic;html=1;rounded=0;exitX=0.5;exitY=1;exitDx=0;exitDy=0;entryX=0.5;entryY=1;entryDx=0;entryDy=0;" parent="1" source="a-PJ5GMv2Ck7ddvkaEID-18" target="a-PJ5GMv2Ck7ddvkaEID-9" edge="1">
          <mxGeometry width="50" height="50" relative="1" as="geometry">
            <mxPoint x="390" y="430" as="sourcePoint" />
            <mxPoint x="440" y="380" as="targetPoint" />
            <Array as="points">
              <mxPoint x="80" y="730" />
              <mxPoint x="330" y="730" />
              <mxPoint x="520" y="730" />
              <mxPoint x="640" y="730" />
              <mxPoint x="770" y="730" />
            </Array>
          </mxGeometry>
        </mxCell>
        <mxCell id="a-PJ5GMv2Ck7ddvkaEID-23" value="Sobre nós" style="ellipse;whiteSpace=wrap;html=1;" parent="1" vertex="1">
          <mxGeometry x="360" y="320" width="80" height="80" as="geometry" />
        </mxCell>
        <mxCell id="a-PJ5GMv2Ck7ddvkaEID-24" value="" style="endArrow=classic;html=1;rounded=0;exitX=0.5;exitY=1;exitDx=0;exitDy=0;entryX=0.5;entryY=0;entryDx=0;entryDy=0;" parent="1" source="a-PJ5GMv2Ck7ddvkaEID-4" target="a-PJ5GMv2Ck7ddvkaEID-23" edge="1">
          <mxGeometry width="50" height="50" relative="1" as="geometry">
            <mxPoint x="390" y="430" as="sourcePoint" />
            <mxPoint x="440" y="380" as="targetPoint" />
          </mxGeometry>
        </mxCell>
        <mxCell id="a-PJ5GMv2Ck7ddvkaEID-25" value="Contato" style="ellipse;whiteSpace=wrap;html=1;" parent="1" vertex="1">
          <mxGeometry x="440" y="420" width="80" height="80" as="geometry" />
        </mxCell>
        <mxCell id="a-PJ5GMv2Ck7ddvkaEID-27" value="FAQ" style="ellipse;whiteSpace=wrap;html=1;" parent="1" vertex="1">
          <mxGeometry x="290" y="420" width="80" height="80" as="geometry" />
        </mxCell>
        <mxCell id="56uWlo-w-R059QN4NPJt-1" value="" style="endArrow=classic;html=1;rounded=0;entryX=0.5;entryY=0;entryDx=0;entryDy=0;" edge="1" parent="1" source="a-PJ5GMv2Ck7ddvkaEID-23" target="a-PJ5GMv2Ck7ddvkaEID-25">
          <mxGeometry width="50" height="50" relative="1" as="geometry">
            <mxPoint x="390" y="430" as="sourcePoint" />
            <mxPoint x="440" y="380" as="targetPoint" />
          </mxGeometry>
        </mxCell>
        <mxCell id="56uWlo-w-R059QN4NPJt-2" value="" style="endArrow=classic;html=1;rounded=0;entryX=0.6;entryY=0.063;entryDx=0;entryDy=0;entryPerimeter=0;" edge="1" parent="1" source="a-PJ5GMv2Ck7ddvkaEID-23" target="a-PJ5GMv2Ck7ddvkaEID-27">
          <mxGeometry width="50" height="50" relative="1" as="geometry">
            <mxPoint x="300" y="370" as="sourcePoint" />
            <mxPoint x="341" y="404" as="targetPoint" />
          </mxGeometry>
        </mxCell>
      </root>
    </mxGraphModel>
  </diagram>
</mxfile>
